<svg width="41" height="40" viewBox="0 0 41 40" fill="none" xmlns="http://www.w3.org/2000/svg">
<path fill-rule="evenodd" clip-rule="evenodd" d="M35.721 25.9899C36.4684 24.1397 36.8799 22.1179 36.8799 20C36.8799 11.1634 29.7164 4 20.8799 4C12.0433 4 4.87988 11.1634 4.87988 20C4.87988 22.3605 5.39107 24.6017 6.30878 26.6188C6.69629 25.1527 9.2673 25.2245 10.501 24.9459L10.114 23.0099C9.94729 22.1765 10.4257 21.3576 11.2028 21.1454L13.1572 20.6118C13.5971 20.4941 14.0476 20.8021 14.138 21.2536C14.3836 22.419 15.0904 23.409 16.0774 23.9696L19.9711 26.1818C20.2217 26.3274 20.3971 26.6469 20.3971 26.9385V32.1432C20.3971 32.6321 20.4009 33.0888 20.4045 33.5134C20.4128 34.5157 20.4197 35.3403 20.3715 35.9921C20.5403 35.9973 20.7098 36 20.8799 36C21.2283 36 21.5741 35.9889 21.9169 35.9669C21.8708 35.3191 21.8776 34.5032 21.8858 33.5138C21.8894 33.0891 21.8932 32.6321 21.8932 32.1432V26.9385C21.8932 26.6208 22.058 26.3336 22.3192 26.1818L26.2129 23.9696C27.1999 23.409 27.9067 22.419 28.1523 21.2536C28.2412 20.8103 28.7008 20.4961 29.1331 20.6118L31.0875 21.1454C31.8646 21.3576 32.343 22.1765 32.1762 23.0099L31.7893 24.9459C32.7875 25.1713 35.0084 25.1821 35.721 25.9899ZM8.63788 16.6549C8.16677 16.3561 7.90478 15.8186 7.95495 15.2524C8.00454 14.6868 8.41009 14.0939 8.98721 13.9622L13.7349 12.8941L13.7346 9.97385C13.7343 8.87644 14.5016 7.91888 15.5599 7.69359C15.5624 7.69302 15.5648 7.69245 15.5672 7.69216C19.0923 6.95363 22.6667 6.95306 26.1914 7.69131C26.1936 7.69159 26.1963 7.69216 26.1987 7.69273C27.2565 7.91774 28.0238 8.87502 28.0243 9.97242V12.8941L32.772 13.9599C33.3494 14.0909 33.7549 14.6845 33.8051 15.2498C33.8541 15.8166 33.5924 16.3538 33.1216 16.6526C32.7591 16.88 32.2988 16.996 31.903 17.1541C31.3169 17.3883 30.721 17.6463 30.0812 17.9428C29.5228 18.2014 28.9348 18.4877 28.2836 18.8181C27.4949 19.2177 26.6685 19.5555 25.8269 19.822C24.2259 20.329 22.5617 20.5862 20.8801 20.5862C20.4684 20.5862 20.0524 20.5703 19.6434 20.5395C18.3836 20.4444 17.1354 20.2031 15.9334 19.8229C15.091 19.5563 14.264 19.2185 13.4761 18.8192C12.8255 18.4894 12.2375 18.2034 11.6785 17.9445C11.0376 17.648 10.4418 17.39 9.85673 17.1564C9.4616 16.9986 8.99869 16.8837 8.63788 16.6549Z" fill="#40B59F"/>
</svg>
