<svg width="40" height="40" viewBox="0 0 40 40" fill="none" xmlns="http://www.w3.org/2000/svg">
<path d="M6.21552 14.5417C5.96558 15.6879 5.96558 17.0707 5.96558 19.8363V28.4387C5.96558 31.2674 5.96558 32.6817 6.49123 33.2512C6.94608 33.744 7.61954 33.9745 8.28186 33.8641C8.87441 33.7653 9.52989 33.0739 10.6034 31.7308C11.7768 32.5557 13.1217 33.1564 14.5776 33.4723C15.7266 33.7217 17.1128 33.7217 19.8852 33.7217C22.6576 33.7217 24.0438 33.7217 25.1927 33.4723C29.3767 32.5644 32.6447 29.3044 33.5548 25.1308C33.8048 23.9846 33.8048 22.6019 33.8048 19.8363C33.8048 17.0707 33.8048 15.6879 33.5548 14.5417C32.6447 10.3681 29.3767 7.10812 25.1927 6.20019C24.0438 5.95087 22.6576 5.95087 19.8852 5.95087C17.1128 5.95087 15.7266 5.95087 14.5776 6.20019C10.3937 7.10812 7.12568 10.3681 6.21552 14.5417Z" fill="#40B59F"/>
<path fill-rule="evenodd" clip-rule="evenodd" d="M17.0074 17.3043C16.3795 16.0518 14.4425 16.0518 13.8147 17.3043C13.5691 17.7943 12.9719 17.9929 12.4807 17.7479C11.9896 17.5029 11.7905 16.9072 12.0361 16.4172C13.3968 13.7026 17.4253 13.7027 18.7859 16.4172C19.0315 16.9071 18.8325 17.5029 18.3413 17.7479C17.8502 17.9928 17.253 17.7943 17.0074 17.3043Z" fill="white"/>
<path fill-rule="evenodd" clip-rule="evenodd" d="M25.9557 17.3043C25.3278 16.0518 23.3908 16.0518 22.763 17.3043C22.5174 17.7943 21.9202 17.9929 21.429 17.7479C20.9379 17.5029 20.7388 16.9072 20.9844 16.4172C22.3451 13.7026 26.3736 13.7027 27.7343 16.4172C27.9798 16.9071 27.7808 17.5029 27.2896 17.7479C26.7985 17.9928 26.2013 17.7943 25.9557 17.3043Z" fill="white"/>
<path d="M26.5357 21.8199H13.2346C12.6202 21.8199 12.4084 22.6354 12.9455 22.933C17.2613 25.3248 22.5091 25.3248 26.8249 22.933C27.362 22.6354 27.1501 21.8199 26.5357 21.8199Z" fill="white"/>
</svg>
